PathFileType	4	(X/Y/Z)	./motion_analysis/DM_ngait_tm_ss1_new.trc
DataRate	CameraRate	NumFrames	NumMarkers	Units	OrigDataRate	OrigDataStartFrame	OrigNumFrames
120	120	5	68	mm	120	262	2097
Frame#	Time	Sternum			Neck			R_Shoulder			L_Shoulder			Xiphoid			Thoracic			R_Asis			L_Asis			R_Psis			L_Psis			Lumbar			R_Elbow			R_ElbowMedial			R_ShoulderAnterior			R_ShoulderPosterior			R_Wrist			R_Radius			R_Ulna			L_Elbow			L_ElbowMedial			L_ShoulderAnterior			L_ShoulderPosterior			L_Wrist			L_Ulna			L_Radius			L_Thigh_Superior			L_Thigh_Inferior			L_Thigh_Lateral			L_Knee_Lateral			L_Knee_Medial			L_Patella			L_Shank_Superior			L_Shank_Inferior			L_Shank_Lateral			L_Ankle_Lateral			L_Ankle_Medial			R_Thigh_Superior			R_Thigh_Inferior			R_Thigh_Lateral			R_Knee_Lateral			R_Knee_Medial			R_Patella			R_Shank_Superior			R_Shank_Inferior			R_Shank_Lateral			R_Ankle_Lateral			RankleMedial			R_Heel			R_Toe			R_Midfoot_Medial			R_Midfoot_Lateral			R_Hindfoot			R_Midfoot_Superior			R_ToeMedial			R_ToeLateral			L_Heel			L_Toe			L_Midfoot_Medial			L_Midfoot_Lateral			L_Hindfoot			L_Midfoot_Superior			L_ToeMedial			L_ToeLateral			Oglobal			Sacral			Xglobal			Yglobal			Zglobal			
		X1	Y1	Z1	X2	Y2	Z2	X3	Y3	Z3	X4	Y4	Z4	X5	Y5	Z5	X6	Y6	Z6	X7	Y7	Z7	X8	Y8	Z8	X9	Y9	Z9	X10	Y10	Z10	X11	Y11	Z11	X12	Y12	Z12	X13	Y13	Z13	X14	Y14	Z14	X15	Y15	Z15	X16	Y16	Z16	X17	Y17	Z17	X18	Y18	Z18	X19	Y19	Z19	X20	Y20	Z20	X21	Y21	Z21	X22	Y22	Z22	X23	Y23	Z23	X24	Y24	Z24	X25	Y25	Z25	X26	Y26	Z26	X27	Y27	Z27	X28	Y28	Z28	X29	Y29	Z29	X30	Y30	Z30	X31	Y31	Z31	X32	Y32	Z32	X33	Y33	Z33	X34	Y34	Z34	X35	Y35	Z35	X36	Y36	Z36	X37	Y37	Z37	X38	Y38	Z38	X39	Y39	Z39	X40	Y40	Z40	X41	Y41	Z41	X42	Y42	Z42	X43	Y43	Z43	X44	Y44	Z44	X45	Y45	Z45	X46	Y46	Z46	X47	Y47	Z47	X48	Y48	Z48	X49	Y49	Z49	X50	Y50	Z50	X51	Y51	Z51	X52	Y52	Z52	X53	Y53	Z53	X54	Y54	Z54	X55	Y55	Z55	X56	Y56	Z56	X57	Y57	Z57	X58	Y58	Z58	X59	Y59	Z59	X60	Y60	Z60	X61	Y61	Z61	X62	Y62	Z62	X63	Y63	Z63	X64	Y64	Z64	X65	Y65	Z65	X66	Y66	Z66	X67	Y67	Z67	X68	Y68	Z68	

263	2.191667	-910.386	1370.74	476.384	-764.728	1466.79	439.152	-886.3680000000001	1405.03	298.061	-794.998	1429.33	632.272	-914.01	1202.69	479.729	-651.707	1288.89	448.725	-816.75	993.898	333.562	-801.441	980.4	612.699	-613.064	1042.29	434.51	-613.125	1041.3	512.058	-615.641	1092.13	473.473	-990.665	1103.68	233.445	-0	0	0	-0	0	0	-0	0	0	-1195.18	963.431	350.351	-1165.89	958.09	386.819	-1175.01	937.828	315.104	-651.284	1124.59	730.405	-0	0	0	-0	0	0	-0	0	0	-628.87	864.304	780.401	-587.8049999999999	882.3099999999999	765.67	-656.527	868.711	741.7809999999999	-764.615	819.625	657.265	-863.376	617.347	616.675	-884.252	715.76	589.879	-0	0	0	-0	0	0	-934.771	545.928	566.622	-872.001	472.426	635.996	-947.273	210.656	652.388	-958.404	345.202	581.1660000000001	-0	0	0	-0	0	0	-696.296	816.125	303.236	-664.8049999999999	601.771	344.906	-759.496	646.407	390.306	-0	0	0	-0	0	0	-718.866	500.364	417.123	-0	0	0	-532.766	211.473	354.546	-623.0700000000001	320.476	421.326	-0	0	0	-0	0	0	-420.662	84.3188	406.53	-718.926	65.32389999999999	400.922	-641.542	42.7031	454.448	-629.107	42.6224	337.838	-518.232	45.107	351.192	-585.389	133.563	401.866	-685.283	53.5493	445.987	-677.742	54.5539	352.504	-934.037	69.5754	600.774	-1209.79	171.577	640.87	-1152.85	124.181	583.254	-1126.26	117.764	694.421	-1029.74	72.8107	671.535	-1063.44	182.792	625.8819999999999	-1187.85	140.458	593.8680000000001	-1175.82	140.534	689.843	-0	0	0	-613.095	1041.79	473.284	-200	0	0	-0	0	200	-0	200	0	
264	2.2	-910.765	1369.06	477.456	-764.774	1465.13	440.898	-886.0549999999999	1403.6	299.326	-795.683	1427.32	633.796	-914.455	1200.89	480.133	-651.797	1287.26	450.903	-816.052	992.814	333.991	-802.49	978.0839999999999	612.954	-612.934	1040.52	436.392	-613.446	1039.3	513.8920000000001	-615.726	1090.25	475.473	-988.559	1101.67	234.166	-0	0	0	-0	0	0	-0	0	0	-1194.36	962.67	350.298	-1165.81	957.228	387.266	-1173.98	936.645	315.317	-649.697	1123.79	731.029	-0	0	0	-0	0	0	-0	0	0	-623.164	863.846	780.8579999999999	-582.52	882.385	765.809	-650.936	867.76	742.425	-763.548	816.12	657.252	-861.147	613.359	618.385	-881.899	710.8049999999999	589.989	-0	0	0	-0	0	0	-934.479	547.022	563.571	-874.718	472.017	635.874	-958.162	212.273	652.172	-964.424	347.087	580.7329999999999	-0	0	0	-0	0	0	-694.4299999999999	815.357	303.742	-660.527	601.283	345.224	-755.926	644.926	390.241	-0	0	0	-0	0	0	-713.604	498.863	416.891	-0	0	0	-524.207	212.201	354.576	-615.8390000000001	320.164	421.257	-0	0	0	-0	0	0	-411.022	85.56870000000001	406.416	-708.987	65.01949999999999	400.881	-631.6	42.5853	454.52	-619.211	42.3224	337.905	-508.275	45.4944	351.161	-576.0599999999999	133.694	401.709	-675.429	53.3707	446.043	-667.592	54.5516	352.483	-950.6369999999999	69.07080000000001	600.3869999999999	-1220.91	183.624	642.6799999999999	-1167.2	132.567	585.016	-1139.19	127.117	695.885	-1045.02	77.77249999999999	672.4160000000001	-1074.71	188.076	625.174	-1201.25	150.639	595.8049999999999	-1187.58	152.047	691.659	-0	0	0	-613.1900000000001	1039.91	475.142	-200	0	0	-0	0	200	-0	200	0	
265	2.208333	-911.1900000000001	1367.43	478.675	-764.953	1463.44	442.897	-885.718	1402.15	300.614	-796.511	1425.26	635.402	-914.9880000000001	1199.14	480.717	-651.881	1285.6	453.161	-815.5359999999999	991.722	334.486	-803.739	975.744	613.157	-612.955	1038.69	438.281	-613.8920000000001	1037.23	515.814	-615.982	1088.28	477.492	-986.563	1099.59	234.909	-0	0	0	-0	0	0	-0	0	0	-1193.53	961.785	350.41	-1165.35	956.45	387.489	-1173.08	935.515	315.612	-648.498	1122.84	731.825	-0	0	0	-0	0	0	-0	0	0	-618.0890000000001	863.174	781.29	-577.688	882.377	766.061	-646.378	866.755	742.904	-762.63	812.468	657.184	-861.208	610.327	621.47	-879.652	705.622	590.554	-0	0	0	-0	0	0	-934.547	548.234	561.2190000000001	-878.103	471.313	635.942	-968.11	213.282	651.468	-970.1319999999999	348.36	580.39	-0	0	0	-0	0	0	-692.6849999999999	814.58	304.162	-656.3440000000001	600.875	345.399	-752.509	643.508	390.175	-0	0	0	-0	0	0	-708.538	497.462	416.765	-0	0	0	-515.8	213.121	354.542	-608.758	319.972	421.171	-0	0	0	-0	0	0	-401.474	86.98869999999999	406.359	-699.135	64.6112	400.882	-621.73	42.4648	454.533	-609.325	42.0366	337.921	-498.351	45.9797	351.132	-566.85	133.864	401.528	-665.614	53.1689	446.102	-657.669	54.3429	352.534	-965.205	68.9841	598.691	-1230.25	193.484	644.713	-1179.63	139.938	586.26	-1150.12	134.097	696.718	-1058.17	81.3865	672.15	-1084.72	192.469	624.6950000000001	-1212.83	159.594	597.349	-1197.52	161.094	693.1950000000001	-0	0	0	-613.423	1037.96	477.048	-200	0	0	-0	0	200	-0	200	0	
266	2.216667	-911.539	1365.85	480.019	-765.176	1461.76	444.975	-885.405	1400.71	301.952	-797.347	1423.16	637.183	-915.625	1197.45	481.278	-652.139	1283.9	455.415	-815.232	990.394	335.211	-805.102	973.4690000000001	613.2619999999999	-613.1	1036.81	440.144	-614.398	1035.1	517.706	-616.4160000000001	1086.24	479.401	-984.67	1097.51	235.638	-0	0	0	-0	0	0	-0	0	0	-1192.65	960.86	350.495	-1164.93	955.418	387.664	-1172.18	934.298	315.817	-647.558	1121.88	732.838	-0	0	0	-0	0	0	-0	0	0	-613.552	862.337	781.595	-573.4059999999999	882.17	766.503	-641.987	865.651	743.162	-762.032	809.069	657.059	-863.84	607.646	624.544	-877.869	700.474	591.628	-0	0	0	-0	0	0	-935.506	549.165	559.333	-881.668	469.97	635.987	-976.925	213.723	650.51	-975.556	348.943	579.937	-0	0	0	-0	0	0	-691.063	813.787	304.592	-652.395	600.446	345.564	-749.207	642.056	390.118	-0	0	0	-0	0	0	-703.575	496.071	416.487	-0	0	0	-507.503	214.147	354.476	-601.8869999999999	319.846	421.005	-0	0	0	-0	0	0	-391.969	88.6194	406.279	-689.246	64.21129999999999	400.885	-611.8440000000001	42.3608	454.563	-599.422	41.7031	337.953	-488.487	46.5367	351.092	-557.771	134.081	401.298	-655.748	52.8482	446.103	-647.779	54.1022	352.458	-977.463	69.7	596.1559999999999	-1239.02	200.456	646.36	-1190.1	146.295	586.816	-1159.75	137.992	696.891	-1069.43	83.386	670.6369999999999	-1093.6	195.86	625.175	-1222.73	166.729	598.677	-1206.48	166.367	694.3099999999999	-0	0	0	-613.749	1035.95	478.925	-200	0	0	-0	0	200	-0	200	0	
267	2.225	-911.9160000000001	1364.2	481.288	-765.323	1460.04	447.163	-885.11	1399.32	303.271	-798.336	1421.06	639.131	-916.312	1195.74	481.827	-652.437	1282.13	457.767	-815.775	988.873	336.899	-806.524	971.088	613.455	-613.678	1034.84	442.114	-615.101	1032.98	519.528	-617.338	1084.12	481.267	-982.929	1095.52	236.354	-0	0	0	-0	0	0	-0	0	0	-1191.76	959.884	350.545	-1164.38	954.375	388.039	-1171.25	933.039	316.094	-646.922	1120.72	734.085	-0	0	0	-0	0	0	-0	0	0	-609.606	861.314	781.836	-569.671	881.918	767.1079999999999	-637.847	864.46	743.325	-762.263	806.045	656.92	-866.658	605.234	626.155	-877.401	696.429	593.374	-0	0	0	-0	0	0	-937.057	549.878	559.122	-885.277	468.671	635.802	-984.417	213.736	649.696	-980.403	348.883	579.123	-0	0	0	-0	0	0	-689.502	813.057	304.792	-648.635	600.048	345.752	-746.151	640.605	389.882	-0	0	0	-0	0	0	-698.569	494.112	417.67	-0	0	0	-499.322	215.236	354.417	-595.189	319.726	420.791	-0	0	0	-0	0	0	-382.549	90.5001	406.154	-679.352	63.7654	400.93	-601.992	42.262	454.466	-589.5	41.3636	337.866	-478.605	47.2918	351.036	-548.72	134.32	400.947	-645.877	52.5402	446.095	-637.845	53.9207	352.555	-987.393	70.5376	593.104	-1246.49	204.748	647.9880000000001	-1198.62	151.204	586.5599999999999	-1168.15	139.293	696.266	-1078.85	83.7967	668.189	-1101.18	197.974	625.991	-1230.95	171.989	599.474	-1214.34	168.597	694.7910000000001	-0	0	0	-614.39	1033.91	480.821	-200	0	0	-0	0	200	-0	200	0	
